<svg width="140" height="141" viewBox="0 0 140 141" fill="none" xmlns="http://www.w3.org/2000/svg">
<circle cx="70" cy="70.207" r="67" stroke="#D9D9D9" stroke-width="6"/>
<circle cx="70" cy="70.207" r="60" fill="#D9D9D9"/>
<path d="M99.9683 82.9258C99.7964 82.4241 99.4997 81.9744 99.106 81.6191C98.7124 81.2637 98.2348 81.0144 97.7183 80.8945L78.9683 76.6133C78.4593 76.4979 77.9296 76.5118 77.4274 76.6537C76.9252 76.7956 76.4665 77.0611 76.0933 77.4258C75.6558 77.832 75.6245 77.8633 73.5933 81.7383C66.8533 78.6325 61.4526 73.2097 58.3745 66.457C62.3433 64.457 62.3745 64.457 62.7808 63.9883C63.1455 63.615 63.4109 63.1564 63.5528 62.6542C63.6948 62.152 63.7087 61.6222 63.5933 61.1133L59.312 42.582C59.1922 42.0655 58.9428 41.5879 58.5875 41.1943C58.2321 40.8006 57.7824 40.5039 57.2808 40.332C56.551 40.0714 55.7974 39.883 55.0308 39.7695C54.2409 39.5864 53.4349 39.4817 52.6245 39.457C48.812 39.457 45.1557 40.9715 42.4599 43.6674C39.764 46.3632 38.2495 50.0195 38.2495 53.832C38.266 66.5905 43.3417 78.8217 52.3633 87.8433C61.3849 96.8649 73.616 101.941 86.3745 101.957C88.2623 101.957 90.1315 101.585 91.8756 100.863C93.6196 100.14 95.2043 99.0815 96.5392 97.7467C97.874 96.4119 98.9329 94.8272 99.6553 93.0831C100.378 91.3391 100.75 89.4698 100.75 87.582C100.75 86.7866 100.688 85.9924 100.562 85.207C100.431 84.4308 100.232 83.6675 99.9683 82.9258Z" fill="#FF0000"/>
</svg>
