<svg width="170" height="170" viewBox="0 0 170 170" fill="none" xmlns="http://www.w3.org/2000/svg">
<circle cx="85" cy="85" r="75" fill="#D9D9D9"/>
<circle cx="85" cy="85" r="82" stroke="#D9D9D9" stroke-width="6"/>
<g clip-path="url(#clip0_1925_1539)">
<path d="M123.047 106.953C122.637 107.695 121.855 108.086 121.074 108.086C120.684 108.086 120.293 107.988 119.941 107.773L87.2851 88.9062V126.621C87.2851 127.871 86.2695 128.906 84.9999 128.906C83.7499 128.906 82.7148 127.891 82.7148 126.621V88.9453L50.0585 107.793C49.707 107.988 49.3163 108.105 48.9257 108.105C48.1445 108.105 47.3632 107.695 46.9531 106.973C46.3281 105.879 46.6992 104.492 47.7929 103.867L80.4492 85L47.7929 66.1328C46.6992 65.5078 46.3281 64.1211 46.9531 63.0273C47.5781 61.9336 48.9843 61.5625 50.0585 62.1875L82.7148 81.0547V43.3398C82.7148 42.0898 83.7304 41.0547 84.9999 41.0547C86.2499 41.0547 87.2851 42.0703 87.2851 43.3398V81.0547L119.941 62.1875C121.035 61.5625 122.422 61.9336 123.047 63.0273C123.672 64.1211 123.301 65.5078 122.207 66.1328L89.5312 85L122.207 103.867C123.301 104.473 123.672 105.879 123.047 106.953Z" fill="#EDEDED"/>
<path d="M109.375 85C109.375 98.457 98.457 109.375 85 109.375C71.543 109.375 60.625 98.457 60.625 85C60.625 71.543 71.543 60.625 85 60.625C98.457 60.625 109.375 71.543 109.375 85Z" fill="white"/>
<path d="M109.375 85C109.375 98.457 98.4766 109.375 85 109.375C76.5234 109.375 69.0625 105.039 64.707 98.4766C68.5742 101.055 73.1836 102.539 78.1836 102.539C91.6406 102.539 102.559 91.6406 102.559 78.1836C102.559 73.2031 101.055 68.5547 98.4961 64.6875C105.039 69.0625 109.375 76.5234 109.375 85Z" fill="#EDEDED"/>
<path d="M100.371 96.875V103.906C96.1719 107.324 90.8203 109.375 84.9805 109.375C79.1602 109.375 73.8086 107.324 69.6094 103.906V96.875C69.6094 91.4453 74.0039 87.0312 79.4336 87.0312H90.5273C95.9766 87.0508 100.371 91.4453 100.371 96.875Z" fill="#BD90BE"/>
<path d="M100.371 96.875V100.664C100.371 95.2344 95.9766 90.8398 90.5469 90.8398H79.4531C74.0234 90.8398 69.6289 95.2539 69.6289 100.664V96.875C69.6289 91.4453 74.0234 87.0312 79.4531 87.0312H90.5469C95.9766 87.0508 100.371 91.4453 100.371 96.875Z" fill="#D3B5D3"/>
<path d="M91.9531 75.5664V82.3047C91.9531 85.8594 89.0625 88.75 85.5078 88.75C81.9531 88.75 79.0625 85.8594 79.0625 82.3047V75.5664H91.9531Z" fill="#FEE8B3"/>
<path d="M91.9531 75.5664H79.0625V78.1641H91.9531V75.5664Z" fill="#FFF4D9"/>
<path d="M96.4648 68.418L91.9531 75.5664H79.0625V71.4453C79.0625 69.7852 80.4297 68.418 82.0898 68.418H96.4648Z" fill="#516468"/>
<path d="M96.4648 68.418L94.6094 71.3672H82.0898C80.4297 71.3672 79.0625 72.7344 79.0625 74.3945V71.4453C79.0625 69.7852 80.4297 68.418 82.0898 68.418H96.4648Z" fill="#7C8B8D"/>
<path d="M92.5776 43.3398C92.5776 47.5195 89.1792 50.918 84.9995 50.918C80.8003 50.918 77.4214 47.5195 77.4214 43.3398C77.4214 39.1406 80.8198 35.7617 84.9995 35.7617C89.1792 35.7617 92.5776 39.1602 92.5776 43.3398Z" fill="#FB8A8A"/>
<path d="M92.5776 126.66C92.5776 130.84 89.1792 134.238 84.9995 134.238C80.8003 134.238 77.4214 130.84 77.4214 126.66C77.4214 122.461 80.8198 119.082 84.9995 119.082C89.1792 119.062 92.5776 122.461 92.5776 126.66Z" fill="#FB8A8A"/>
<path d="M52.7145 57.5976C56.3473 59.6875 57.5777 64.3359 55.4879 67.9687C53.398 71.6016 48.7496 72.832 45.1168 70.7422C41.484 68.6523 40.2535 64.0039 42.3434 60.3711C44.4527 56.7578 49.0816 55.5078 52.7145 57.5976Z" fill="#FDDD8D"/>
<path d="M124.863 99.2578C128.496 101.348 129.726 105.996 127.636 109.629C125.546 113.262 120.898 114.492 117.265 112.402C113.632 110.312 112.402 105.664 114.492 102.031C116.601 98.418 121.23 97.168 124.863 99.2578Z" fill="#FDDD8D"/>
<path d="M45.1362 99.2578C48.769 97.168 53.3979 98.418 55.5073 102.031C57.5972 105.664 56.3472 110.293 52.7339 112.402C49.0815 114.492 44.4526 113.242 42.3628 109.609C40.2534 105.996 41.5034 101.348 45.1362 99.2578Z" fill="#7BDE9E"/>
<path d="M117.285 57.5976C120.917 55.5078 125.546 56.7578 127.656 60.3711C129.746 64.0039 128.496 68.6328 124.882 70.7422C121.25 72.832 116.621 71.6016 114.511 67.9687C112.402 64.3359 113.652 59.707 117.285 57.5976Z" fill="#7BDE9E"/>
<path d="M92.5781 43.3398C92.5781 47.5195 89.1797 50.918 85 50.918C81.7969 50.918 79.082 48.9453 77.9688 46.1719C78.8477 46.5234 79.8047 46.7188 80.8008 46.7188C84.9805 46.7188 88.3789 43.3203 88.3789 39.1406C88.3789 38.1445 88.1836 37.168 87.832 36.3086C90.6055 37.4219 92.5781 40.1563 92.5781 43.3398Z" fill="#F96363"/>
<path d="M92.5781 126.66C92.5781 130.84 89.1797 134.238 85 134.238C81.7969 134.238 79.082 132.266 77.9688 129.473C78.8477 129.824 79.8047 130.02 80.8008 130.02C84.9805 130.02 88.3789 126.621 88.3789 122.441C88.3789 121.445 88.1836 120.488 87.832 119.609C90.625 120.742 92.5781 123.457 92.5781 126.66Z" fill="#F96363"/>
<path d="M55.4883 67.9688C53.3984 71.6016 48.75 72.832 45.1172 70.7422C43.5937 69.8633 42.4805 68.5352 41.875 67.0117C45.332 68.3984 49.3555 67.0703 51.2695 63.7695C52.4805 61.6602 52.5781 59.2383 51.7383 57.1484C52.0703 57.2852 52.3828 57.4219 52.6953 57.6172C56.3477 59.707 57.5781 64.3359 55.4883 67.9688Z" fill="#FDD267"/>
<path d="M127.637 109.609C125.547 113.242 120.898 114.473 117.266 112.383C115.742 111.504 114.629 110.156 114.023 108.652C117.461 110.039 121.504 108.73 123.418 105.41C124.629 103.32 124.727 100.879 123.887 98.7891C124.219 98.9258 124.531 99.082 124.844 99.2578C128.496 101.348 129.727 105.996 127.637 109.609Z" fill="#FDD267"/>
<path d="M52.7148 112.402C49.082 114.492 44.4531 113.242 42.3633 109.609C42.1875 109.297 42.0312 108.984 41.8945 108.652C43.9844 109.492 46.4062 109.395 48.5156 108.184C51.8359 106.27 53.1445 102.227 51.7578 98.7891C53.2813 99.3945 54.6094 100.488 55.4883 102.031C57.5781 105.664 56.3477 110.293 52.7148 112.402Z" fill="#50D27E"/>
<path d="M124.863 70.7422C121.23 72.8516 116.602 71.6016 114.492 67.9687C114.316 67.6562 114.16 67.3437 114.023 67.0117C116.113 67.8516 118.555 67.7539 120.645 66.543C123.945 64.6289 125.273 60.5859 123.887 57.1484C125.41 57.7539 126.738 58.8672 127.617 60.3906C129.727 64.0039 128.496 68.6523 124.863 70.7422Z" fill="#50D27E"/>
<path d="M125.254 98.5938C122.187 96.8359 118.496 97.207 115.859 99.3164L108.125 94.8438C109.414 91.8164 110.137 88.4961 110.137 85C110.137 81.5039 109.414 78.1641 108.125 75.1367L115.879 70.6641C118.496 72.7539 122.207 73.1445 125.273 71.3867C129.277 69.082 130.625 63.9844 128.32 59.9805C126.015 55.9961 120.918 54.6289 116.914 56.9336C113.867 58.6914 112.324 62.0703 112.832 65.4297L105.078 69.9023C101.074 64.5703 94.9803 60.8984 88.0467 60.0586V51.1133C91.1522 49.9023 93.3592 46.875 93.3592 43.3398C93.3397 38.75 89.5897 35 84.9998 35C80.41 35 76.66 38.75 76.66 43.3398C76.66 46.875 78.867 49.8828 81.9725 51.1133V60.0586C75.0194 60.8984 68.9451 64.5703 64.9217 69.9023L57.1678 65.4297C57.6756 62.1289 56.1522 58.7109 53.1053 56.9531C49.1014 54.6484 44.0233 56.0156 41.699 60C39.3944 63.9844 40.7615 69.1016 44.7459 71.4062C47.8123 73.1836 51.5233 72.7734 54.1405 70.6836L61.8748 75.1562C60.5858 78.1836 59.8631 81.5039 59.8631 85C59.8631 88.4961 60.5858 91.8164 61.8748 94.8438L54.1405 99.3164C51.5428 97.2266 47.8123 96.8359 44.7655 98.5938C40.7811 100.898 39.4139 106.016 41.7186 110C44.0037 113.965 49.1209 115.352 53.1248 113.047C56.1717 111.289 57.6951 107.871 57.1873 104.57L64.9412 100.098C68.9451 105.43 75.0389 109.102 81.9725 109.941V118.906C78.867 120.117 76.66 123.145 76.66 126.68C76.66 131.289 80.41 135.02 84.9998 135.02C89.5897 135.02 93.3397 131.27 93.3397 126.68C93.3397 123.145 91.1326 120.137 88.0272 118.906V109.961C94.9803 109.121 101.055 105.449 105.078 100.117L112.832 104.59C112.324 107.891 113.847 111.309 116.894 113.066C120.879 115.371 125.976 114.004 128.301 110.02C130.605 106.016 129.238 100.898 125.254 98.5938ZM117.656 58.2617C120.937 56.3672 125.117 57.5195 126.972 60.7617C128.867 64.0234 127.734 68.2031 124.472 70.0781C121.211 71.9531 117.031 70.8594 115.156 67.5781C113.281 64.3164 114.375 60.1562 117.656 58.2617ZM113.203 66.9531C113.379 67.4219 113.574 67.8906 113.847 68.3398C114.101 68.7891 114.394 69.1992 114.726 69.5898L107.461 73.7695C107.012 72.8516 106.504 71.9922 105.937 71.1523L113.203 66.9531ZM78.1639 43.3398C78.1639 39.5703 81.2303 36.5039 84.9998 36.5039C88.7694 36.5039 91.8358 39.5703 91.8358 43.3398C91.8358 47.1094 88.7694 50.1758 84.9998 50.1758C81.2303 50.1758 78.1639 47.1094 78.1639 43.3398ZM84.9998 51.6992C85.5272 51.6992 86.0154 51.6406 86.5233 51.5625V59.9414C86.0154 59.9219 85.5076 59.9023 84.9998 59.9023C84.492 59.9023 83.9842 59.9219 83.4764 59.9414V51.543C83.9647 51.6406 84.4725 51.6992 84.9998 51.6992ZM45.5076 70.0781C42.2459 68.1836 41.1131 64.0234 43.0076 60.7617C44.8826 57.5 49.0623 56.3672 52.324 58.2617C55.5858 60.1367 56.699 64.3359 54.824 67.5781C52.949 70.8594 48.7694 71.9727 45.5076 70.0781ZM55.2733 69.5898C55.6053 69.1992 55.8983 68.7891 56.1522 68.3398C56.4061 67.8906 56.6209 67.4219 56.7772 66.9531L64.0428 71.1328C63.4959 71.9727 62.9881 72.8516 62.5194 73.75L55.2733 69.5898ZM52.3436 111.738C49.0623 113.633 44.9022 112.5 43.0272 109.238C41.1522 105.977 42.2655 101.797 45.5272 99.9219C48.7889 98.0469 52.9686 99.1406 54.8436 102.422C56.7186 105.664 55.6053 109.863 52.3436 111.738ZM56.7772 103.047C56.6014 102.578 56.4061 102.109 56.1522 101.66C55.8983 101.211 55.5858 100.801 55.2733 100.43L62.5194 96.2305C62.9686 97.1484 63.4764 98.0078 64.0428 98.8477L56.7772 103.047ZM91.8162 126.66C91.8162 130.43 88.7498 133.496 84.9803 133.496C81.2108 133.496 78.1444 130.43 78.1444 126.66C78.1444 122.891 81.2108 119.824 84.9803 119.824C88.7498 119.824 91.8162 122.891 91.8162 126.66ZM84.9998 118.301C84.4725 118.301 83.9647 118.359 83.4764 118.438V110.059C83.9842 110.098 84.492 110.098 84.9998 110.098C85.5076 110.098 86.0154 110.078 86.5233 110.059V118.438C86.0154 118.359 85.5076 118.301 84.9998 118.301ZM99.6092 103.516C97.8319 104.922 95.8397 106.094 93.6912 106.953V96.5234C93.6912 96.0938 93.3592 95.7617 92.9295 95.7617C92.5194 95.7617 92.1678 96.0938 92.1678 96.5234V107.5C89.9022 108.223 87.4803 108.613 84.9803 108.613C82.4803 108.613 80.0584 108.223 77.8123 107.5V96.5234C77.8123 96.0938 77.4803 95.7617 77.0506 95.7617C76.6405 95.7617 76.2889 96.0938 76.2889 96.5234V106.953C74.1404 106.094 72.1483 104.941 70.3709 103.535V96.8945C70.3709 91.8945 74.4334 87.8125 79.4334 87.8125H80.8592C82.1092 88.8672 83.7303 89.5117 85.5076 89.5117C87.285 89.5117 88.9061 88.8672 90.1561 87.8125H90.5467C95.5467 87.8125 99.6287 91.8945 99.6287 96.8945V103.516H99.6092ZM91.1912 76.3281V82.3047C91.1912 85.4297 88.6326 87.9883 85.5076 87.9883C82.3826 87.9883 79.824 85.4297 79.824 82.3047V76.3281H91.1912ZM79.824 74.8047V71.4453C79.824 70.1953 80.8397 69.1797 82.0897 69.1797H95.078L91.5233 74.8047H79.824ZM101.133 102.207V96.875C101.133 91.3477 96.8748 86.7969 91.4842 86.3281C92.2655 85.1758 92.7147 83.7891 92.7147 82.3047V75.7812L97.1092 68.8086C97.2655 68.5742 97.2655 68.2812 97.1287 68.0469C96.992 67.8125 96.7381 67.6562 96.4647 67.6562H82.0897C79.9998 67.6562 78.3006 69.3555 78.3006 71.4453V82.3047C78.3006 83.7695 78.7498 85.1367 79.5115 86.2891H79.453C73.6131 86.2891 68.8865 91.0547 68.8865 96.8945V102.227C64.2967 97.9102 61.4061 91.7969 61.4061 85.0195C61.4061 71.9922 71.992 61.4062 85.0194 61.4062C98.0467 61.4062 108.613 71.9727 108.613 85C108.613 91.7969 105.722 97.9102 101.133 102.207ZM105.957 98.8477C106.504 98.0078 107.012 97.1289 107.48 96.2305L114.746 100.41C114.414 100.801 114.121 101.211 113.867 101.641C113.613 102.09 113.398 102.559 113.242 103.027L105.957 98.8477ZM126.992 109.238C125.097 112.5 120.937 113.633 117.676 111.738C114.414 109.844 113.281 105.684 115.176 102.422C117.07 99.1602 121.23 98.0273 124.492 99.9219C127.754 101.797 128.867 105.977 126.992 109.238Z" fill="#333333"/>
</g>
<defs>
<clipPath id="clip0_1925_1539">
<rect width="100" height="100" fill="white" transform="translate(35 35)"/>
</clipPath>
</defs>
</svg>
