<svg width="48" height="198" viewBox="0 0 48 198" fill="none" xmlns="http://www.w3.org/2000/svg">
<path d="M3.01626 195.462C3.15683 196.557 4.15893 197.331 5.25452 197.191L23.1082 194.9C24.2038 194.76 24.978 193.757 24.8374 192.662C24.6968 191.566 23.6947 190.792 22.5991 190.933L6.72922 192.969L4.69305 177.099C4.55248 176.003 3.55038 175.229 2.45479 175.37C1.3592 175.51 0.585003 176.512 0.725571 177.608L3.01626 195.462ZM6.58269 196.43C34.1036 160.807 48.0506 131.991 47.9999 101.76C47.9492 71.5749 33.9393 40.4082 6.65645 0.0862427L3.34355 2.32782C30.5289 42.5056 43.9513 72.831 43.9999 101.767C44.0483 130.657 30.7612 158.591 3.41731 193.984L6.58269 196.43Z" fill="white"/>
</svg>
