<svg width="49" height="199" viewBox="0 0 49 199" fill="none" xmlns="http://www.w3.org/2000/svg">
<path d="M42.6212 198.171C43.7058 198.38 44.7546 197.67 44.9638 196.586L48.3727 178.912C48.5819 177.827 47.8722 176.778 46.7876 176.569C45.703 176.36 44.6542 177.069 44.4451 178.154L41.415 193.864L25.7045 190.834C24.6199 190.625 23.5711 191.335 23.3619 192.419C23.1527 193.504 23.8624 194.553 24.947 194.762L42.6212 198.171ZM41.4173 0.98429C13.8964 36.6068 -0.0505638 65.4226 0.000137329 95.6539C0.0507622 125.839 14.0607 157.006 41.3436 197.328L44.6564 195.086C17.4711 154.908 4.04866 124.583 4.00013 95.6472C3.95168 66.7573 17.2388 38.823 44.5827 3.42977L41.4173 0.98429Z" fill="white"/>
</svg>
