<svg width="90" height="90" viewBox="0 0 90 90" fill="none" xmlns="http://www.w3.org/2000/svg">
<path fill-rule="evenodd" clip-rule="evenodd" d="M18.75 33.75C18.75 19.2525 30.5025 7.5 45 7.5C59.4975 7.5 71.25 19.2525 71.25 33.75V56.25C71.25 70.7475 59.4975 82.5 45 82.5C30.5025 82.5 18.75 70.7475 18.75 56.25V33.75ZM45 15C34.6447 15 26.25 23.3947 26.25 33.75V56.25C26.25 66.6053 34.6447 75 45 75C55.3552 75 63.75 66.6053 63.75 56.25V33.75C63.75 23.3947 55.3552 15 45 15ZM45 26.25C47.0711 26.25 48.75 27.9289 48.75 30V41.25C48.75 43.3211 47.0711 45 45 45C42.9289 45 41.25 43.3211 41.25 41.25V30C41.25 27.9289 42.9289 26.25 45 26.25Z" fill="white"/>
</svg>
