<svg width="170" height="170" viewBox="0 0 170 170" fill="none" xmlns="http://www.w3.org/2000/svg">
<circle cx="85" cy="85" r="82" stroke="#D9D9D9" stroke-width="6"/>
<circle cx="85" cy="85" r="75" fill="#D9D9D9"/>
<g clip-path="url(#clip0_1925_1452)">
<path d="M115.666 78.0719H79.8457V135H115.666V78.0719Z" fill="#E6E6E6"/>
<path d="M115.666 35H79.8457V70.8201H115.666V35Z" fill="#F7B239"/>
<path d="M72.7567 99.1799V135H36.9341V125.156V99.1799H72.7567Z" fill="#2BA5F7"/>
<path d="M72.7567 35H36.9341V91.9307H72.7567V35Z" fill="#E6E6E6"/>
<path d="M58.5594 122.079L70.3012 135H60.7809L53.7981 127.318L58.5594 122.079Z" fill="#E09B2D"/>
<path d="M61.619 105.327C64.7212 105.327 67.2337 107.839 67.2337 110.942C67.2337 114.041 64.7212 116.556 61.619 116.556C58.5194 116.556 56.0044 114.041 56.0044 110.942C56.0044 107.839 58.5194 105.327 61.619 105.327Z" fill="#F95428"/>
<path d="M53.7981 127.318L60.781 135H36.9341V125.156L44.3821 116.962L53.7981 127.318Z" fill="#F7B239"/>
<path d="M99.6218 41.7164H95.8903H86.7485V49.9256H90.48V45.4481H95.8903V60.7463H92.1589V64.478H95.8903H99.6218H103.353V60.7463H99.6218V45.4481H105.032V49.9256H108.764V41.7164H99.6218Z" fill="#C93A27"/>
<path d="M66.04 41.7789H49.6221V44.7641H66.04V41.7789Z" fill="#808080"/>
<path d="M66.0399 49.8563H43.6519V52.8415H66.0399V49.8563Z" fill="#808080"/>
<path d="M66.0399 57.934H43.6519V60.9191H66.0399V57.934Z" fill="#808080"/>
<path d="M66.0399 66.0116H43.6519V68.9968H66.0399V66.0116Z" fill="#808080"/>
<path d="M66.0399 74.0891H43.6519V77.0743H66.0399V74.0891Z" fill="#808080"/>
<path d="M54.846 82.1666H43.6519V85.1518H54.846V82.1666Z" fill="#808080"/>
<path d="M108.951 84.8483H92.5327V87.8334H108.951V84.8483Z" fill="#808080"/>
<path d="M108.951 92.9258H86.5625V95.9109H108.951V92.9258Z" fill="#808080"/>
<path d="M108.951 101.003H86.5625V103.988H108.951V101.003Z" fill="#808080"/>
<path d="M108.951 109.081H86.5625V112.066H108.951V109.081Z" fill="#808080"/>
<path d="M108.951 117.158H86.5625V120.144H108.951V117.158Z" fill="#808080"/>
<path d="M97.7566 125.236H86.5625V128.221H97.7566V125.236Z" fill="#808080"/>
<path d="M129.458 44.8971H133.066L127.965 35.0002L122.865 44.8971H126.473V125.103H122.865L127.965 135L133.066 125.103H129.458V44.8971Z" fill="#F7B239"/>
</g>
<defs>
<clipPath id="clip0_1925_1452">
<rect width="100" height="100" fill="white" transform="translate(35 35)"/>
</clipPath>
</defs>
</svg>
