<svg width="101" height="101" viewBox="0 0 101 101" fill="none" xmlns="http://www.w3.org/2000/svg">
<path d="M91.3456 66.5723C91.1166 65.9006 90.7212 65.2985 90.1968 64.8227C89.6723 64.3468 89.036 64.013 88.3478 63.8525L63.366 58.12C62.6879 57.9655 61.982 57.9841 61.3129 58.1742C60.6438 58.3642 60.0327 58.7196 59.5354 59.2079C58.9525 59.7519 58.9109 59.7937 56.2045 64.9823C47.2244 60.8237 40.0287 53.5627 35.9276 44.5211C41.2154 41.8431 41.257 41.8431 41.7983 41.2155C42.2843 40.7157 42.6379 40.1016 42.827 39.4292C43.0161 38.7567 43.0346 38.0474 42.8809 37.366L37.1767 12.5531C37.017 11.8614 36.6848 11.222 36.2113 10.6949C35.7379 10.1679 35.1387 9.77058 34.4703 9.54044C33.498 9.19142 32.4939 8.93916 31.4725 8.78726C30.4201 8.54204 29.3463 8.40189 28.2665 8.36884C23.1869 8.36884 18.3153 10.3967 14.7235 14.0064C11.1316 17.616 9.11377 22.5117 9.11377 27.6166C9.1358 44.6998 15.8984 61.077 27.9184 73.1567C39.9385 85.2364 56.2349 92.0325 73.2338 92.0546C75.7489 92.0546 78.2395 91.5568 80.5632 90.5895C82.8869 89.6222 84.9983 88.2044 86.7768 86.4171C88.5553 84.6298 89.9661 82.5079 90.9286 80.1727C91.8911 77.8374 92.3865 75.3345 92.3865 72.8069C92.3878 71.7419 92.3043 70.6784 92.1367 69.6268C91.9617 68.5875 91.697 67.5655 91.3456 66.5723Z" fill="white"/>
</svg>
