<svg width="91" height="91" viewBox="0 0 91 91" fill="none" xmlns="http://www.w3.org/2000/svg">
<path d="M85.1964 5.05411C81.9547 1.81707 77.5685 0 72.9964 0C68.4243 0 64.0381 1.81707 60.7964 5.05411L13.2371 52.8729L1.10603 77.9242C0.482516 79.2435 0.199029 80.699 0.281578 82.1569C0.364128 83.6149 0.810072 85.0287 1.57848 86.2686C2.3469 87.5085 3.41317 88.5347 4.67945 89.2532C5.94573 89.9717 7.37146 90.3594 8.8258 90.3806C10.1419 90.3802 11.4398 90.0722 12.6168 89.481L37.5682 77.3014L78.9241 35.78L84.645 30.1054L85.0585 29.6902C88.3263 26.4391 90.176 22.0194 90.2018 17.4007C90.2277 12.7821 88.4275 8.34176 85.1964 5.05411ZM79.0619 11.2131C79.8643 12.0167 80.5009 12.9712 80.9352 14.0222C81.3696 15.0731 81.5931 16.1997 81.5931 17.3375C81.5931 18.4753 81.3696 19.602 80.9352 20.6529C80.5009 21.7038 79.8643 22.6584 79.0619 23.4619L66.8619 11.2131C68.4287 9.61474 70.5564 8.69567 72.7896 8.65263C73.9548 8.61966 75.114 8.83025 76.1938 9.27103C77.2736 9.71182 78.2503 10.3732 79.0619 11.2131ZM8.89472 81.6611L19.6473 59.032L31.4337 70.8656L8.89472 81.6611ZM37.5682 65.0526L25.4371 52.8729L60.7964 17.5105L72.7896 29.5517L37.5682 65.0526Z" fill="white"/>
</svg>
