<svg width="150" height="150" viewBox="0 0 150 150" fill="none" xmlns="http://www.w3.org/2000/svg">
<circle cx="75" cy="75" r="75" fill="white"/>
<path d="M91.6665 98C105.474 98 116.667 86.8071 116.667 73C116.667 59.1929 105.474 48 91.6665 48C77.8594 48 66.6665 59.1929 66.6665 73C66.6665 86.8071 77.8594 98 91.6665 98Z" fill="#2CA9BC"/>
<path d="M98.7918 84.2916C98.2435 84.2948 97.6999 84.1896 97.1922 83.9823C96.6846 83.7749 96.2228 83.4694 95.8335 83.0833L88.7085 75.9583C88.3223 75.5689 88.0168 75.1072 87.8094 74.5995C87.6021 74.0919 87.497 73.5483 87.5002 72.9999V60.4999C87.5002 59.3948 87.9391 58.335 88.7206 57.5536C89.502 56.7722 90.5618 56.3333 91.6668 56.3333C92.7719 56.3333 93.8317 56.7722 94.6131 57.5536C95.3945 58.335 95.8335 59.3948 95.8335 60.4999V71.2916L101.75 77.1666C102.141 77.5539 102.451 78.0148 102.662 78.5225C102.874 79.0303 102.983 79.5749 102.983 80.1249C102.983 80.675 102.874 81.2196 102.662 81.7273C102.451 82.2351 102.141 82.6959 101.75 83.0833C101.361 83.4694 100.899 83.7749 100.391 83.9823C99.8838 84.1896 99.3402 84.2948 98.7918 84.2916ZM91.6668 102.167C83.9313 102.167 76.5127 99.0937 71.0429 93.6239C65.5731 88.1541 62.5002 80.7354 62.5002 72.9999C62.5002 65.2644 65.5731 57.8458 71.0429 52.376C76.5127 46.9062 83.9313 43.8333 91.6668 43.8333C93.0621 43.839 94.455 43.9504 95.8335 44.1666V39.6666C95.8335 37.4564 94.9555 35.3368 93.3927 33.774C91.8299 32.2112 89.7103 31.3333 87.5002 31.3333H41.6668C39.4567 31.3333 37.3371 32.2112 35.7743 33.774C34.2115 35.3368 33.3335 37.4564 33.3335 39.6666V106.333C33.3335 108.543 34.2115 110.663 35.7743 112.226C37.3371 113.789 39.4567 114.667 41.6668 114.667H87.5002C89.7103 114.667 91.8299 113.789 93.3927 112.226C94.9555 110.663 95.8335 108.543 95.8335 106.333V101.833C94.455 102.049 93.0621 102.161 91.6668 102.167Z" fill="black"/>
</svg>
