<svg width="150" height="150" viewBox="0 0 150 150" fill="none" xmlns="http://www.w3.org/2000/svg">
<circle cx="75" cy="75" r="75" fill="white"/>
<g clip-path="url(#clip0_1925_1717)">
<path d="M86.4619 66.1562C84.8281 66.1562 83.5268 65.8413 82.4809 65.3562C80.916 64.6315 79.9023 63.5149 79.2645 62.4001C78.9465 61.8458 78.7264 61.2946 78.5881 60.8095C78.4498 60.3259 78.3953 59.9001 78.3969 59.6462C78.3969 59.161 78.0049 58.769 77.5213 58.769C77.0377 58.769 76.6455 59.161 76.6455 59.6462C76.6455 59.9612 76.6842 60.3083 76.7613 60.6905C76.8961 61.3604 77.1467 62.1315 77.5598 62.93C78.175 64.1206 79.1551 65.372 80.6203 66.32C80.9883 66.5626 81.3816 66.7794 81.8092 66.9724C81.8766 67.263 81.9713 67.7724 81.9699 68.3909C81.9699 68.839 81.9201 69.3372 81.7852 69.8497C81.65 70.3622 81.4301 70.8827 81.0766 71.3919C80.8051 71.7919 80.9016 72.3349 81.2998 72.6097C81.6967 72.8845 82.2414 72.7866 82.516 72.3882C82.9947 71.6987 83.2984 70.9808 83.4785 70.2979C83.6568 69.6134 83.7193 68.9612 83.7193 68.3909C83.7193 68.1065 83.7033 67.8382 83.6809 67.5974C84.5227 67.7917 85.4449 67.9073 86.4617 67.9073C86.9453 67.9073 87.3375 67.5155 87.3375 67.0317C87.3377 66.5483 86.9457 66.1562 86.4619 66.1562Z" fill="black"/>
<path d="M90.3436 54.891C89.9227 54.6564 89.3909 54.8009 89.1516 55.2236C88.9139 55.6429 89.0634 56.1763 89.4842 56.4156C90.13 56.7851 90.5221 57.1931 90.7856 57.6158C89.7059 57.9947 88.7516 58.1523 87.905 58.1523C86.6694 58.1507 85.6591 57.8246 84.8042 57.3234C83.9542 56.8238 83.2682 56.1378 82.7462 55.4292C81.8868 54.2564 80.7702 53.2138 79.4528 52.4523C78.1354 51.6941 76.6139 51.2185 74.9786 51.2185C73.5471 51.2185 72.0385 51.588 70.5413 52.4089C69.9307 52.7433 69.3991 53.1351 68.938 53.5642C67.1176 54.2646 65.5512 54.5185 64.2227 54.5185C62.3319 54.5152 60.9212 54.0107 59.9766 53.5126C59.5059 53.2621 59.154 53.0146 58.926 52.8347C58.812 52.7433 58.7268 52.6726 58.6753 52.6244L58.6239 52.5746L58.6141 52.565C58.2784 52.2212 57.7272 52.2115 57.3786 52.5455C57.0317 52.8812 57.0219 53.4339 57.3561 53.7826C57.4075 53.8326 58.0069 54.446 59.1587 55.0584C59.663 55.325 60.28 55.5869 60.9934 55.8005C60.804 56.0671 60.545 56.4591 60.2626 56.9539C59.7212 57.9099 59.0993 59.2529 58.7844 60.8324C58.6864 61.3093 58.995 61.7689 59.4688 61.8636C59.9428 61.9601 60.4022 61.65 60.4969 61.1759C60.7622 59.8443 61.3083 58.6585 61.7854 57.8183C62.0249 57.3941 62.2448 57.0617 62.404 56.8335C62.4843 56.7226 62.5469 56.6343 62.5903 56.5796C62.6112 56.5523 62.6274 56.5332 62.6368 56.5203L62.6497 56.5074L62.6512 56.5042C62.7301 56.4062 62.7831 56.2953 62.8135 56.1765C63.2585 56.2343 63.726 56.2666 64.2225 56.2666C65.1415 56.2666 66.1505 56.1574 67.2364 55.9115C66.695 57.0699 66.4749 58.2812 66.4731 59.3898C66.4764 60.5046 66.6885 61.5201 67.0694 62.3267C67.2764 62.7621 67.7987 62.9501 68.2341 62.7427C68.6694 62.5353 68.8575 62.015 68.6501 61.5779C68.4075 61.0732 68.221 60.2732 68.2243 59.3896C68.2227 58.4353 68.4315 57.3878 68.9249 56.4287C69.4212 55.4712 70.1891 54.5988 71.3829 53.9433C72.6409 53.2523 73.8458 52.9697 74.9784 52.9664C76.2718 52.9697 77.4893 53.3421 78.5786 53.9689C79.6647 54.5939 80.6126 55.4775 81.3354 56.4623C81.9716 57.3314 82.8231 58.1861 83.9173 58.832C85.0096 59.4779 86.3526 59.9037 87.9048 59.9003C88.9313 59.9003 90.0462 59.7173 91.2479 59.3093L91.2495 59.3705C91.2495 59.7994 91.1821 60.1896 91.1161 60.4662C91.0841 60.6011 91.0503 60.7119 91.0262 60.781C91.0149 60.8164 91.0069 60.8421 91.0005 60.8582L90.9958 60.871V60.8726C90.8192 61.3207 91.0343 61.8269 91.4825 62.0068C91.9323 62.1851 92.4417 61.9667 92.6216 61.5201C92.6456 61.4574 92.9942 60.5818 92.9991 59.3707C92.9991 58.6765 92.8786 57.8605 92.4721 57.0556C92.0708 56.2468 91.3782 55.4742 90.3436 54.891Z" fill="black"/>
<path d="M67.8852 48.3523C68.488 47.6421 69.3442 47.0832 70.3192 46.7087C71.2944 46.3294 72.3806 46.1416 73.3991 46.1416C74.3888 46.1416 75.3126 46.323 75.9874 46.6396C76.4292 46.8419 76.9479 46.6494 77.1487 46.2123C77.3513 45.7736 77.1601 45.2515 76.7229 45.0525C75.7462 44.5994 74.5958 44.397 73.3989 44.3953C72.1685 44.3953 70.8864 44.6154 69.6894 45.075C68.4974 45.5343 67.3888 46.2365 66.5534 47.2246C66.2386 47.5923 66.2851 48.1435 66.653 48.455C67.0226 48.7699 67.5769 48.7218 67.8852 48.3523Z" fill="black"/>
<path d="M81.4028 25.0893C59.8364 23.7621 41.6759 37.3297 42.087 59.4344L42.071 61.4348L32.7014 77.9809C32.197 78.8725 32.1518 79.9537 32.5794 80.8855C33.0067 81.8174 33.855 82.4873 34.8606 82.6865L40.6509 84.2834L42.4694 101.827C42.5177 103.519 43.2696 105.113 44.5452 106.223C45.8208 107.335 47.5046 107.86 49.185 107.672L53.8087 108.04C54.7114 107.94 55.6145 108.228 56.2907 108.835C56.9671 109.439 57.3544 110.305 57.3544 111.213V125H96.4759C96.4759 125 96.4759 118.315 96.4759 115.648C96.4759 112.98 97.3979 106.881 99.1427 104.089C105.485 93.9482 115.809 88.5533 117.551 67.758C119.294 46.9594 106.882 26.659 81.4028 25.0893ZM107.431 60.7518C106.554 62.201 105.135 63.1037 103.586 63.3705C103.111 63.4541 102.79 63.9039 102.87 64.3811C102.955 64.8564 103.407 65.1795 103.882 65.0943C104.237 65.0332 104.587 64.9449 104.933 64.834C105.306 65.6066 105.492 66.4373 105.492 67.2646C105.492 68.1482 105.282 69.0254 104.878 69.8189C104.476 70.6111 103.882 71.3164 103.101 71.8658C102.12 72.5549 101.003 72.8826 99.8946 72.8844C99.8063 72.8844 99.7194 72.8748 99.6327 72.873C99.6134 72.7268 99.5956 72.5822 99.57 72.4393V72.4375C99.379 71.4238 98.9821 70.4953 98.4407 69.6887L98.3747 69.5908L98.2848 69.5137C97.6229 68.9449 96.744 68.0131 96.0661 67.0637C95.7239 66.5898 95.4333 66.1094 95.2372 65.682C95.0395 65.2531 94.9479 64.8803 94.9512 64.6602C94.9512 64.5621 94.9657 64.4945 94.985 64.4496C95.0011 64.4062 95.0171 64.3805 95.0509 64.3451C95.3915 64.0061 95.3915 63.4502 95.0509 63.1064C94.7087 62.7674 94.1561 62.7674 93.8155 63.1064C93.6001 63.3186 93.4393 63.5754 93.3415 63.8471C93.2403 64.1139 93.2032 64.3916 93.2032 64.66C93.2063 65.2656 93.3895 65.8408 93.6466 66.4096C94.037 67.2596 94.6184 68.1029 95.2499 68.874C95.8428 69.5971 96.471 70.2477 97.0366 70.7457C97.427 71.3418 97.7112 72.0166 97.8511 72.7604C97.9089 73.0738 97.9393 73.3854 97.9458 73.6826V73.6891C97.9458 73.7275 97.9473 73.7662 97.9473 73.8078C97.9473 75.1285 97.4766 76.3801 96.6684 77.3648C95.8589 78.348 94.7198 79.0629 93.3686 79.3168C93.0167 79.3842 92.6665 79.4164 92.3225 79.4164C90.4671 79.418 88.7511 78.4846 87.7198 77.0033C88.2757 76.4394 88.7497 75.7791 89.1095 75.0287V75.0303C89.5577 74.1033 89.7938 73.1201 89.8356 72.1467C89.8565 71.6646 89.4839 71.2566 89.0018 71.2357C88.5167 71.2133 88.11 71.5891 88.0876 72.0711C88.0571 72.8133 87.8772 73.557 87.535 74.2672L87.5335 74.2705C87.1655 75.0303 86.6546 75.6666 86.044 76.1695L86.0409 76.1711C85.0352 76.992 83.7675 77.4451 82.4712 77.4451C81.6552 77.4451 80.8261 77.2668 80.0387 76.8859C78.5817 76.1855 77.5696 74.9373 77.1214 73.509H77.1198C76.9495 72.9676 76.8612 72.3973 76.8612 71.8254C76.8612 71.0076 77.0395 70.1785 77.4202 69.3898C77.6307 68.9545 77.446 68.4309 77.0106 68.2234C76.5768 68.0131 76.0548 68.1945 75.8442 68.6301C75.3495 69.6582 75.11 70.7523 75.11 71.8256C75.11 72.3461 75.1712 72.8602 75.2772 73.3629C74.5944 73.7357 73.8249 73.975 72.9927 74.0344H72.9911C72.8546 74.0441 72.7212 74.0504 72.5862 74.0504C71.272 74.0504 70.0559 73.5941 69.0919 72.8213C68.2485 72.1467 67.6028 71.2389 67.2589 70.1816C67.8725 69.5762 68.3835 68.8645 68.7577 68.0756C68.9634 67.6385 68.7768 67.118 68.3401 66.9123C67.9048 66.7051 67.3794 66.8914 67.1753 67.3299C66.8298 68.0627 66.3253 68.7133 65.71 69.2322C64.8329 69.9729 63.7274 70.4484 62.497 70.5369H62.4954C62.3589 70.5465 62.2255 70.5529 62.0923 70.5529C59.3161 70.5529 56.9448 68.5014 56.543 65.7574L56.5415 65.7494V65.7447C56.519 65.6129 56.5046 65.4764 56.495 65.335C56.4854 65.2016 56.4805 65.0635 56.4805 64.9285C56.4805 64.5766 56.5143 64.2281 56.577 63.8922C56.6622 63.4166 56.3491 62.9604 55.8735 62.8721C55.4012 62.7869 54.9434 63.0971 54.8534 63.5725C54.7745 64.0125 54.7313 64.4656 54.7313 64.9283L54.7329 64.9813C53.9458 64.893 53.1825 64.6406 52.4997 64.2406C51.6352 63.7363 50.9011 62.9973 50.3934 62.0492C49.9421 61.2025 49.7282 60.3014 49.7282 59.408C49.7282 58.2545 50.0866 57.1221 50.747 56.1756C51.0024 56.5354 51.2899 56.8744 51.6128 57.1924C52.3518 57.917 53.2065 58.4535 54.111 58.8037C54.5624 58.9807 55.0671 58.7555 55.2421 58.3025C55.4188 57.8527 55.1923 57.3467 54.744 57.1715C54.0516 56.9047 53.4024 56.4969 52.8401 55.9441V55.9426C52.3421 55.4574 51.9565 54.9047 51.6817 54.3119C51.3284 53.56 51.1516 52.7424 51.1516 51.9311C51.153 50.5076 51.6833 49.0971 52.7532 48.0047C53.6641 47.076 54.8112 46.5328 56.0016 46.3676H56.0032H56.0063C56.2602 46.3354 56.5139 46.3178 56.7678 46.3178C58.1882 46.3193 59.6003 46.8545 60.696 47.9229C61.0415 48.2586 61.594 48.2553 61.9331 47.9084C62.2706 47.5646 62.2641 47.0119 61.9202 46.6729C60.5257 45.3072 58.72 44.6084 56.9124 44.5764C57.1163 43.7393 57.5085 42.9604 58.0579 42.3047C58.821 41.3955 59.8637 40.7238 61.1104 40.4363C61.5346 40.3416 61.9522 40.2934 62.3682 40.2934C63.1009 40.2934 63.8141 40.441 64.4729 40.7078C64.2866 41.3602 64.1837 42.0445 64.1837 42.7547C64.1837 43.2365 64.5743 43.627 65.0577 43.627C65.5411 43.627 65.9315 43.2365 65.9315 42.7547C65.9315 41.9898 66.0876 41.259 66.3606 40.5955C66.7831 39.5801 67.4981 38.7158 68.3962 38.1053C69.2973 37.4947 70.3755 37.1398 71.5466 37.1398C73.2335 37.1398 74.7389 37.8771 75.7702 39.0547C76.6393 40.0428 77.1616 41.3344 77.1616 42.7547C77.1616 43.2365 77.5553 43.627 78.0372 43.627C78.5208 43.627 78.9143 43.2365 78.9143 42.7547C78.9143 41.1383 78.3907 39.6395 77.5053 38.4266C77.9585 37.8 78.5352 37.2666 79.2034 36.8715C80.0387 36.3799 81.0108 36.0955 82.0536 36.0955C83.2552 36.0955 84.3589 36.4699 85.2698 37.1092C86.1841 37.7486 86.8973 38.6549 87.3007 39.707H87.2991C87.537 40.332 87.6671 41.0035 87.6671 41.7121C87.6671 42.1941 88.0606 42.5859 88.5427 42.5859C89.0247 42.5859 89.4198 42.1941 89.4198 41.7121C89.4198 40.9891 89.3089 40.2936 89.1145 39.6332C90.1524 38.6693 91.5261 38.123 92.9446 38.123C93.6852 38.123 94.4372 38.2693 95.1632 38.5793C96.1753 39.018 96.9884 39.7104 97.5682 40.5555C98.1483 41.4021 98.4887 42.3949 98.5483 43.423C98.5548 43.5291 98.5596 43.6336 98.5596 43.7395C98.5563 44.4818 98.41 45.2305 98.0985 45.9582C97.9075 46.4018 98.113 46.9158 98.5563 47.1053C99.0013 47.2965 99.5137 47.0924 99.7065 46.649C100.031 45.8939 100.217 45.1147 100.28 44.3324C101.138 44.3934 101.973 44.6537 102.713 45.0906C103.556 45.5887 104.277 46.318 104.769 47.2529C105.199 48.0707 105.402 48.9398 105.404 49.801C105.404 50.1945 105.355 50.585 105.27 50.9674C104.747 50.7617 104.2 50.6236 103.656 50.5432C103.18 50.4773 102.735 50.8115 102.671 51.2902C102.602 51.7691 102.936 52.2107 103.412 52.2768C103.963 52.3553 104.504 52.5129 105.021 52.757C105.111 52.9066 105.249 53.0303 105.423 53.1059C105.529 53.1523 105.643 53.175 105.754 53.175C106.077 53.3902 106.371 53.6328 106.633 53.8979L106.634 53.8994C107.685 54.958 108.249 56.3863 108.249 57.8467C108.249 58.8383 107.987 59.8408 107.431 60.7518Z" fill="black"/>
<path d="M98.3443 53.0181C97.9105 52.6437 97.4447 52.3368 96.9514 52.1216C96.4565 51.903 95.9359 51.7729 95.4043 51.7729C94.9207 51.7729 94.5303 52.1649 94.5303 52.6485C94.5303 53.1321 94.9207 53.5226 95.4043 53.5226C95.7256 53.5226 96.1305 53.6335 96.5609 53.881C97.202 54.2487 97.8688 54.9106 98.3508 55.7364C98.8393 56.5638 99.1508 57.5454 99.1477 58.5624C99.1443 59.679 98.7926 60.8454 97.8383 62.0036C97.533 62.3747 97.5844 62.9274 97.957 63.2343C98.3299 63.5444 98.8824 63.4897 99.1895 63.1202C100.389 61.6694 100.902 60.063 100.9 58.5624C100.9 57.6499 100.714 56.7759 100.409 55.979C99.9461 54.7853 99.2104 53.7665 98.3443 53.0181Z" fill="black"/>
<path d="M92.2941 49.0512C89.8891 49.0512 87.9596 48.1645 86.6228 47.0061C85.9545 46.4276 85.4435 45.7819 85.1078 45.1618C84.7672 44.5432 84.6129 43.9536 84.6162 43.5118C84.6162 43.0299 84.2242 42.6379 83.7422 42.6379C83.2586 42.6379 82.8666 43.0299 82.8666 43.5118C82.8697 44.3329 83.1269 45.1778 83.5703 45.9973C84.0379 46.852 84.7191 47.6825 85.5818 48.4118C85.4082 48.6528 85.1689 48.9676 84.8603 49.3002C84.1951 50.028 83.2346 50.8329 82.0857 51.2426C81.6344 51.4032 81.3949 51.9028 81.5572 52.359C81.7193 52.8153 82.2176 53.0499 82.6754 52.8891C84.2322 52.3301 85.3953 51.31 86.1873 50.4407C86.5392 50.0551 86.8123 49.7002 87.0164 49.4174C88.4623 50.2512 90.2504 50.8024 92.2939 50.8024C92.7775 50.8024 93.1678 50.4104 93.1678 49.9284C93.168 49.445 92.7775 49.0512 92.2941 49.0512Z" fill="black"/>
</g>
<defs>
<clipPath id="clip0_1925_1717">
<rect width="100" height="100" fill="white" transform="translate(25 25)"/>
</clipPath>
</defs>
</svg>
