<svg width="150" height="150" viewBox="0 0 150 150" fill="none" xmlns="http://www.w3.org/2000/svg">
<circle cx="75" cy="75" r="75" fill="white"/>
<g clip-path="url(#clip0_1925_1729)">
<path d="M57.8043 92.1062C55.4605 89.4288 53.0354 86.6456 51.1148 82.5522C49.2349 78.5157 48.1933 74.349 48.2258 70.0196C48.2665 65.6902 49.3651 61.2305 51.7577 56.6244C51.774 56.5919 51.7903 56.5675 51.8065 56.5349C54.9397 51.2289 59.3261 47.6807 64.2089 45.6951C68.3023 44.0186 72.7538 43.449 77.1158 43.8477C81.4615 44.2465 85.7177 45.6137 89.4368 47.811C94.1649 50.6104 98.0549 54.7608 100.195 60.0017C101.351 62.8419 102.132 66.0076 102.23 69.4744C102.327 72.933 101.733 76.6602 100.138 80.599C97.6968 86.6456 91.9921 93.1235 88.2567 99.0723C88.0533 99.0317 87.8417 99.0235 87.6301 99.0561L82.5927 99.8048L90.2668 73.1121C90.4866 72.3552 90.039 71.5658 89.2821 71.3461C88.5253 71.1345 87.7359 71.574 87.5162 72.3308L79.484 100.277L71.8668 101.408L63.8183 75.822C64.3961 75.936 65.0064 75.6837 65.3238 75.1466L71.0285 65.4379L73.9338 72.1029C74.2512 72.8272 75.0894 73.1527 75.8056 72.8435C76.1636 72.6889 76.4241 72.3959 76.5624 72.0623L79.134 65.5681L82.1451 73.5108C82.4218 74.2514 83.2437 74.6176 83.9843 74.3409C84.7248 74.0642 85.091 73.2423 84.8144 72.5017L80.5256 61.1899C80.4036 60.7911 80.1024 60.4493 79.6874 60.2865C78.955 59.9936 78.1249 60.3598 77.8319 61.0922L75.1708 67.8223L72.5178 61.7351C72.4039 61.4665 72.2004 61.2305 71.9319 61.0759C71.2564 60.6772 70.3775 60.905 69.9869 61.5805L63.0533 73.3806L62.5569 71.81C62.3209 71.0613 61.5233 70.6381 60.7746 70.8741C60.0259 71.1101 59.6028 71.9076 59.8388 72.6563L69.0103 101.831L63.4927 102.653C62.1581 98.7061 60.1236 94.7673 57.8043 92.1062ZM39.8111 40.0473C39.1682 39.4451 38.8264 38.6394 38.7938 37.8256C38.7613 37.0118 39.0461 36.1817 39.6402 35.5388C40.2424 34.8959 41.0481 34.5541 41.8619 34.5216C42.6757 34.489 43.5058 34.7738 44.1487 35.3679L49.2593 40.1287C49.9022 40.7309 50.244 41.5365 50.2766 42.3503C50.3091 43.1723 50.0243 43.9942 49.4302 44.6371C48.828 45.28 48.0224 45.6218 47.2086 45.6544C46.3866 45.6869 45.5647 45.4021 44.9218 44.808L39.8111 40.0473ZM31.4534 75.1791C30.5907 75.1954 29.8013 74.8617 29.2154 74.3165C28.6213 73.755 28.2388 72.9737 28.2063 72.0867C28.1737 71.2078 28.5074 70.394 29.0689 69.7999C29.6304 69.2058 30.4117 68.8233 31.2987 68.7989L38.273 68.5629C39.1519 68.5303 39.9657 68.864 40.5598 69.4255C41.1539 69.9871 41.5364 70.7683 41.5608 71.6554V71.7042H41.5689L41.5608 71.8181C41.5445 72.6401 41.219 73.3806 40.6981 73.9421C40.1366 74.5362 39.3554 74.9106 38.4683 74.9431H38.4195V74.9513H38.3463L31.4534 75.1791ZM118.302 65.2914L118.408 65.2833C119.238 65.2345 120.011 65.503 120.614 65.9913C121.248 66.504 121.68 67.269 121.777 68.1397V68.1723C121.785 68.1723 121.785 68.2618 121.785 68.2781C121.834 69.1082 121.566 69.8813 121.077 70.4835C120.565 71.1182 119.8 71.5496 118.929 71.6472L111.987 72.3796C111.108 72.4692 110.278 72.1925 109.652 71.6798C109.017 71.1671 108.577 70.4021 108.488 69.5313C108.398 68.6606 108.675 67.8223 109.188 67.1957C109.7 66.561 110.465 66.1215 111.336 66.032C113.656 65.7797 115.983 65.5111 118.302 65.2914ZM104.549 37.5082C105.045 36.7758 105.778 36.3201 106.575 36.1573C107.373 36.0027 108.227 36.1492 108.968 36.6375L108.976 36.6456C109.709 37.1339 110.172 37.8744 110.327 38.672C110.482 39.4695 110.335 40.324 109.847 41.0645L105.965 46.8669C105.477 47.5994 104.736 48.0632 103.931 48.226C103.133 48.3806 102.279 48.2341 101.538 47.7458C100.806 47.2576 100.342 46.5089 100.179 45.7113C100.024 44.9138 100.171 44.0593 100.659 43.3188L104.549 37.5082ZM74.4058 28.1169C74.4302 27.2299 74.8046 26.4405 75.3987 25.879C75.9765 25.3256 76.774 24.9919 77.6366 25.0001V24.9919C77.7099 24.9919 77.7831 25.0001 77.8563 25.0082C78.662 25.0733 79.3863 25.4395 79.9071 25.9848C80.4605 26.5626 80.7942 27.352 80.786 28.2227H80.7942C80.7942 28.2797 80.7942 28.3367 80.786 28.3855L80.6151 35.197H80.6233C80.6233 35.2703 80.6151 35.3435 80.607 35.4167C80.5419 36.2305 80.1757 36.9467 79.6304 37.4675C79.0445 38.0209 78.2551 38.3546 77.3925 38.3464V38.3546C77.3192 38.3546 77.246 38.3464 77.1728 38.3383C76.359 38.2732 75.6428 37.907 75.122 37.3617C74.5686 36.7758 74.2349 35.9864 74.2431 35.1238H74.2349C74.2349 35.0668 74.2349 35.0098 74.2431 34.961L74.4058 28.1169ZM86.328 102.995L85.8153 105.396L85.6851 107.105L65.0715 110.173C64.9983 108.944 64.803 107.617 64.4937 106.242L86.328 102.995ZM85.6444 110.848L85.6607 111.882L85.6851 112.24C85.7421 112.915 85.7502 113.599 85.7095 114.274L85.4003 115.763L66.2515 118.612L65.9179 117.847L65.1692 114.787L65.1529 113.9L85.6444 110.848ZM84.1389 119.686C83.1461 121.387 81.7789 122.713 80.2164 123.617C78.8248 124.43 77.2704 124.894 75.716 124.992C74.1373 125.09 72.5422 124.788 71.0855 124.089C70.0927 123.6 69.1649 122.925 68.343 122.046L84.1389 119.686Z" fill="black"/>
</g>
<defs>
<clipPath id="clip0_1925_1729">
<rect width="100" height="100" fill="white" transform="translate(25 25)"/>
</clipPath>
</defs>
</svg>
